<svg width="82" height="80" viewBox="0 0 82 80" fill="none" xmlns="http://www.w3.org/2000/svg">
<path fill-rule="evenodd" clip-rule="evenodd" d="M40.9424 0C18.3217 0 0 18.2484 0 40.7786C0 58.8232 11.7198 74.0642 27.9944 79.4674C30.0415 79.8242 30.8092 78.6008 30.8092 77.5304C30.8092 76.5619 30.758 73.3506 30.758 69.9354C20.4712 71.8214 17.81 67.4377 16.9911 65.1439C16.5305 63.9715 14.5346 60.3524 12.7945 59.3839C11.3615 58.6193 9.3144 56.7333 12.7433 56.6823C15.9675 56.6313 18.2706 59.6388 19.0382 60.8621C22.723 67.0299 28.6085 65.2968 30.9627 64.2264C31.321 61.5757 32.3957 59.7917 33.5728 58.7722C24.4631 57.7528 14.944 54.2356 14.944 38.6378C14.944 34.2031 16.5305 30.533 19.1406 27.6785C18.7312 26.659 17.2982 22.4792 19.55 16.8722C19.55 16.8722 22.9789 15.8017 30.8092 21.052C34.0846 20.1345 37.5647 19.6757 41.0448 19.6757C44.5249 19.6757 48.005 20.1345 51.2804 21.052C59.1106 15.7508 62.5395 16.8722 62.5395 16.8722C64.7914 22.4792 63.3584 26.659 62.949 27.6785C65.5591 30.533 67.1456 34.1521 67.1456 38.6378C67.1456 54.2866 57.5753 57.7528 48.4656 58.7722C49.9498 60.0465 51.2292 62.4933 51.2292 66.3163C51.2292 71.7704 51.178 76.1541 51.178 77.5304C51.178 78.6008 51.9457 79.8752 53.9928 79.4674C62.1205 76.7343 69.1831 71.5315 74.1865 64.5912C79.19 57.651 81.8824 49.3227 81.8848 40.7786C81.8848 18.2484 63.5631 0 40.9424 0Z" fill="white"/>
</svg>
