<svg width="156" height="156" viewBox="0 0 156 156" fill="none" xmlns="http://www.w3.org/2000/svg">
<path d="M48.75 0C43.5783 0 38.6184 2.05446 34.9614 5.71142C31.3045 9.36838 29.25 14.3283 29.25 19.5V136.5C29.25 141.672 31.3045 146.632 34.9614 150.289C38.6184 153.946 43.5783 156 48.75 156H107.25C112.422 156 117.382 153.946 121.039 150.289C124.696 146.632 126.75 141.672 126.75 136.5V19.5C126.75 14.3283 124.696 9.36838 121.039 5.71142C117.382 2.05446 112.422 0 107.25 0H48.75ZM0 39C0 33.8283 2.05446 28.8684 5.71142 25.2114C9.36838 21.5545 14.3283 19.5 19.5 19.5V136.5C14.3283 136.5 9.36838 134.446 5.71142 130.789C2.05446 127.132 0 122.172 0 117V39ZM136.5 136.5V19.5C141.672 19.5 146.632 21.5545 150.289 25.2114C153.946 28.8684 156 33.8283 156 39V117C156 122.172 153.946 127.132 150.289 130.789C146.632 134.446 141.672 136.5 136.5 136.5V136.5Z" fill="white"/>
</svg>
