<svg width="201" height="168" viewBox="0 0 201 168" fill="none" xmlns="http://www.w3.org/2000/svg">
<path d="M22.9821 0C16.8869 0 11.0413 2.42132 6.73131 6.73131C2.42133 11.0413 0 16.8869 0 22.9821V144.161C0 150.256 2.42133 156.102 6.73131 160.412C11.0413 164.722 16.8869 167.143 22.9821 167.143H177.556C183.651 167.143 189.497 164.722 193.807 160.412C198.117 156.102 200.538 150.256 200.538 144.161V22.9821C200.538 16.8869 198.117 11.0413 193.807 6.73131C189.497 2.42132 183.651 0 177.556 0H22.9905H22.9821ZM108.609 64.7679C108.609 63.1055 109.27 61.5113 110.445 60.3358C111.621 59.1604 113.215 58.5 114.877 58.5H160.842C162.504 58.5 164.098 59.1604 165.274 60.3358C166.449 61.5113 167.109 63.1055 167.109 64.7679C167.109 66.4302 166.449 68.0244 165.274 69.1999C164.098 70.3753 162.504 71.0357 160.842 71.0357H114.877C113.215 71.0357 111.621 70.3753 110.445 69.1999C109.27 68.0244 108.609 66.4302 108.609 64.7679V64.7679ZM114.877 91.9286H160.842C162.504 91.9286 164.098 92.5889 165.274 93.7644C166.449 94.9398 167.109 96.5341 167.109 98.1964C167.109 99.8588 166.449 101.453 165.274 102.628C164.098 103.804 162.504 104.464 160.842 104.464H114.877C113.215 104.464 111.621 103.804 110.445 102.628C109.27 101.453 108.609 99.8588 108.609 98.1964C108.609 96.5341 109.27 94.9398 110.445 93.7644C111.621 92.5889 113.215 91.9286 114.877 91.9286ZM77.2702 64.7679C77.2702 68.6466 75.7293 72.3666 72.9866 75.1093C70.2439 77.852 66.5239 79.3929 62.6451 79.3929C58.7664 79.3929 55.0464 77.852 52.3037 75.1093C49.561 72.3666 48.0201 68.6466 48.0201 64.7679C48.0201 60.8891 49.561 57.1691 52.3037 54.4264C55.0464 51.6837 58.7664 50.1429 62.6451 50.1429C66.5239 50.1429 70.2439 51.6837 72.9866 54.4264C75.7293 57.1691 77.2702 60.8891 77.2702 64.7679V64.7679ZM41.7523 87.75H83.538C85.7545 87.75 87.8801 88.6305 89.4474 90.1977C91.0147 91.765 91.8952 93.8907 91.8952 96.1071V100.286C91.8952 100.286 87.7166 121.179 62.6451 121.179C37.5737 121.179 33.3951 100.286 33.3951 100.286V96.1071C33.3951 93.8907 34.2756 91.765 35.8429 90.1977C37.4102 88.6305 39.5358 87.75 41.7523 87.75Z" fill="white"/>
</svg>
