<svg width="93" height="93" viewBox="0 0 93 93" fill="none" xmlns="http://www.w3.org/2000/svg">
<path d="M83.2946 15.4584C82.9434 15.4222 82.5894 15.4222 82.2383 15.4584H10.0994C9.63702 15.4655 9.17774 15.5349 8.73389 15.6645L45.9627 52.7388L83.2946 15.4584Z" fill="white"/>
<path d="M87.1077 19.0393L49.5955 56.3969C48.63 57.3567 47.3241 57.8953 45.9628 57.8953C44.6015 57.8953 43.2955 57.3567 42.3301 56.3969L5.15276 19.3227C5.03847 19.7428 4.97787 20.1756 4.97241 20.6109V72.1387C4.97241 73.5053 5.51529 74.8159 6.48163 75.7822C7.44796 76.7486 8.75859 77.2915 10.1252 77.2915H82.2641C83.6307 77.2915 84.9413 76.7486 85.9077 75.7822C86.874 74.8159 87.4169 73.5053 87.4169 72.1387V20.6109C87.3964 20.0741 87.292 19.5439 87.1077 19.0393ZM13.6548 72.1387H10.0737V68.4544L28.804 49.8787L32.4367 53.5114L13.6548 72.1387ZM82.2126 72.1387H78.6056L59.8237 53.5114L63.4564 49.8787L82.1868 68.4544L82.2126 72.1387Z" fill="white"/>
</svg>
