<svg width="96" height="96" viewBox="0 0 96 96" fill="none" xmlns="http://www.w3.org/2000/svg">
<path d="M51 63.45L62.7 65.7L72.3 16.35C72.9 13.05 70.8 9.74999 67.65 9.14999C64.35 8.54999 61.2 10.8 60.6 14.1L51 63.45Z" fill="#FFDD67"/>
<path d="M67.8001 9.15C67.3501 9 67.0501 9 66.6001 9C69.3001 10.05 70.8001 12.9 70.2001 15.9L60.6001 65.25L62.7001 65.7L72.3001 16.35C73.0501 12.9 70.9501 9.75 67.8001 9.15Z" fill="#EBA352"/>
<path d="M39 64.95H53.1V10.5C53.1 6.45 49.95 3 46.05 3C42.3 3 39 6.3 39 10.5V64.95Z" fill="#FFDD67"/>
<path d="M46.1999 3C45.8999 3 45.4499 3 45.1499 3.15C48.5999 3.75 51.1499 6.75 51.1499 10.5V65.1H53.2499V10.5C53.2499 6.3 50.0999 3 46.1999 3Z" fill="#EBA352"/>
<path d="M31.4999 64.8L43.4999 61.65L30.4499 12C29.5499 8.54997 26.0999 6.44997 22.7999 7.19997C19.4999 8.09997 17.5499 11.55 18.4499 15L31.4999 64.8Z" fill="#FFDD67"/>
<path d="M22.7999 7.19997L21.8999 7.64997C24.8999 7.49997 27.5999 9.44997 28.4999 12.6L41.5499 62.25L43.6499 61.65L30.4499 12C29.5499 8.54997 26.0999 6.44997 22.7999 7.19997Z" fill="#EBA352"/>
<path d="M5.99997 20.1C3.14997 21.45 2.24997 25.05 3.74997 28.05L23.55 67.5L33.6 62.4L13.8 22.95C12.3 19.95 8.84997 18.75 5.99997 20.1Z" fill="#FFDD67"/>
<path d="M6.0001 20.1C5.7001 20.25 5.4001 20.4 5.1001 20.7C7.6501 19.95 10.5001 21.3 11.8501 24L31.6501 63.45L33.6001 62.55L13.8001 22.95C12.3001 19.95 8.8501 18.75 6.0001 20.1Z" fill="#EBA352"/>
<path d="M92.5501 43.95C90.1501 39.3 82.6501 39.6 75.0001 48C69.6001 53.85 68.5501 55.8 63.1501 55.65V49.5C63.1501 49.5 51.6001 40.95 28.6501 44.85C28.6501 44.85 15.6001 46.65 15.6001 53.55C15.6001 53.55 13.3501 70.2 18.0001 80.7C24.9001 96.3 60.3001 100.35 71.4001 73.8C73.6501 68.55 78.1501 64.65 82.2001 59.7C86.8501 53.7 95.1001 48.9 92.5501 43.95Z" fill="#FFDD67"/>
<path d="M92.5499 43.95C92.0999 43.05 91.4999 42.45 90.7499 41.85C90.8999 42 91.0499 42.15 91.0499 42.45C93.5999 47.55 85.3499 52.2 80.3999 58.2C76.3499 63.15 71.8499 67.05 69.5999 72.3C59.9999 95.25 32.0999 95.25 20.3999 84.75C31.0499 96.75 61.0499 97.95 71.0999 73.8C73.3499 68.55 77.8499 64.65 81.8999 59.7C86.8499 53.7 95.0999 48.9 92.5499 43.95ZM64.6499 55.65C54.8999 52.05 37.4999 58.65 39.8999 76.2C39.8999 59.85 54.7499 55.8 62.8499 55.8C64.0499 55.65 64.6499 55.65 64.6499 55.65Z" fill="#EBA352"/>
</svg>
