<svg width="102" height="97" viewBox="0 0 102 97" fill="none" xmlns="http://www.w3.org/2000/svg">
<path d="M99.7041 47.2774L53.4458 1.05276C53.1127 0.719041 52.7171 0.454278 52.2816 0.273631C51.8461 0.0929845 51.3792 0 50.9077 0C50.4362 0 49.9693 0.0929845 49.5338 0.273631C49.0983 0.454278 48.7027 0.719041 48.3696 1.05276L2.11133 47.2774C0.763672 48.625 0 50.4556 0 52.3648C0 56.3291 3.22314 59.5523 7.1875 59.5523H12.0615V92.5362C12.0615 94.524 13.6675 96.1299 15.6553 96.1299H43.7202V70.9737H56.2983V96.1299H86.1602C88.1479 96.1299 89.7539 94.524 89.7539 92.5362V59.5523H94.6279C96.5371 59.5523 98.3677 58.7998 99.7153 57.4409C102.512 54.6333 102.512 50.085 99.7041 47.2774Z" fill="white"/>
</svg>
