<svg width="80" height="80" viewBox="0 0 80 80" fill="none" xmlns="http://www.w3.org/2000/svg">
<path d="M79.4358 23.5608C79.3912 20.2091 78.7637 16.8907 77.5816 13.7541C76.5564 11.1084 74.9907 8.70562 72.9843 6.69929C70.978 4.69296 68.5752 3.12721 65.9295 2.10206C62.8332 0.939763 59.5621 0.311288 56.2556 0.243397C51.9984 0.053105 50.6486 0 39.8418 0C29.035 0 27.6499 2.96746e-07 23.4236 0.243397C20.1185 0.311787 16.849 0.940255 13.7541 2.10206C11.108 3.12649 8.70484 4.692 6.69842 6.69842C4.692 8.70484 3.12649 11.108 2.10206 13.7541C0.937435 16.8481 0.310323 20.1183 0.247822 23.4236C0.0575301 27.6853 0 29.035 0 39.8418C0 50.6486 -3.29717e-08 52.0293 0.247822 56.26C0.314203 59.5702 0.938183 62.8361 2.10206 65.9383C3.12821 68.5837 4.69488 70.9859 6.70197 72.9914C8.70907 74.997 11.1124 76.5618 13.7585 77.586C16.845 78.795 20.1151 79.4684 23.428 79.5774C27.6897 79.7677 29.0394 79.8252 39.8462 79.8252C50.653 79.8252 52.0382 79.8252 56.2644 79.5774C59.5709 79.5123 62.8422 78.8853 65.9383 77.7232C68.5834 76.6968 70.9855 75.1307 72.9917 73.1245C74.9979 71.1183 76.5641 68.7161 77.5904 66.0711C78.7543 62.9733 79.3783 59.7074 79.4446 56.3928C79.6349 52.1355 79.6925 50.7858 79.6925 39.9746C79.6836 29.1678 79.6836 27.7959 79.4358 23.5608ZM39.8153 60.2783C28.5128 60.2783 19.3567 51.1221 19.3567 39.8197C19.3567 28.5172 28.5128 19.3611 39.8153 19.3611C45.2412 19.3611 50.4449 21.5165 54.2817 25.3533C58.1184 29.19 60.2738 34.3937 60.2738 39.8197C60.2738 45.2456 58.1184 50.4494 54.2817 54.2861C50.4449 58.1228 45.2412 60.2783 39.8153 60.2783ZM61.0881 23.3749C60.4615 23.3755 59.8409 23.2525 59.2618 23.013C58.6828 22.7734 58.1566 22.4221 57.7135 21.979C57.2704 21.5358 56.919 21.0097 56.6795 20.4307C56.44 19.8516 56.317 19.231 56.3175 18.6043C56.3175 17.9782 56.4409 17.3581 56.6805 16.7796C56.9201 16.2011 57.2714 15.6754 57.7142 15.2326C58.157 14.7898 58.6826 14.4386 59.2611 14.199C59.8397 13.9593 60.4597 13.836 61.0859 13.836C61.7121 13.836 62.3322 13.9593 62.9107 14.199C63.4892 14.4386 64.0149 14.7898 64.4576 15.2326C64.9004 15.6754 65.2517 16.2011 65.4913 16.7796C65.7309 17.3581 65.8543 17.9782 65.8543 18.6043C65.8543 21.2419 63.7212 23.3749 61.0881 23.3749Z" fill="white"/>
<path d="M39.8153 53.1091C47.1549 53.1091 53.1048 47.1592 53.1048 39.8196C53.1048 32.48 47.1549 26.5302 39.8153 26.5302C32.4758 26.5302 26.5259 32.48 26.5259 39.8196C26.5259 47.1592 32.4758 53.1091 39.8153 53.1091Z" fill="white"/>
</svg>
