<svg width="117" height="117" viewBox="0 0 117 117" fill="none" xmlns="http://www.w3.org/2000/svg">
<path fill-rule="evenodd" clip-rule="evenodd" d="M0 58.1875C0 73.6198 6.13045 88.42 17.0427 99.3323C27.955 110.245 42.7552 116.375 58.1875 116.375C73.6198 116.375 88.42 110.245 99.3323 99.3323C110.245 88.42 116.375 73.6198 116.375 58.1875C116.375 42.7552 110.245 27.955 99.3323 17.0427C88.42 6.13045 73.6198 0 58.1875 0C42.7552 0 27.955 6.13045 17.0427 17.0427C6.13045 27.955 0 42.7552 0 58.1875V58.1875ZM106.4 58.1875C106.4 70.9743 101.32 83.2373 92.2789 92.2789C83.2373 101.32 70.9743 106.4 58.1875 106.4C45.4008 106.4 33.1377 101.32 24.0961 92.2789C15.0545 83.2373 9.975 70.9743 9.975 58.1875C9.975 45.4008 15.0545 33.1377 24.0961 24.0961C33.1377 15.0545 45.4008 9.975 58.1875 9.975C70.9743 9.975 83.2373 15.0545 92.2789 24.0961C101.32 33.1377 106.4 45.4008 106.4 58.1875V58.1875Z" fill="white"/>
<path fill-rule="evenodd" clip-rule="evenodd" d="M33.25 58.1875C33.25 88.2588 43.1651 113.05 58.1875 113.05C73.2099 113.05 83.125 88.2588 83.125 58.1875C83.125 28.1162 73.2099 3.325 58.1875 3.325C43.1651 3.325 33.25 28.1162 33.25 58.1875ZM73.15 58.1875C73.15 83.2048 65.2033 103.075 58.1875 103.075C51.1718 103.075 43.225 83.2048 43.225 58.1875C43.225 33.1702 51.1718 13.3 58.1875 13.3C65.2033 13.3 73.15 33.1702 73.15 58.1875Z" fill="white"/>
<path d="M15.6408 28.0431L22.3307 20.6483C22.9957 21.2468 23.7205 21.8453 24.4919 22.4238C32.9441 28.7546 46.4369 32.6648 61.1667 32.6648C73.7418 32.6648 85.4525 29.8253 93.9578 24.9641C96.006 23.7937 97.8281 22.5236 99.4042 21.1736L105.881 28.7613C103.717 30.5967 101.384 32.2222 98.9121 33.6158C88.8307 39.388 75.411 42.6332 61.1667 42.6332C44.3954 42.6332 28.8144 38.1245 18.5069 30.4038C17.5158 29.6613 16.5594 28.8736 15.6408 28.0431V28.0431ZM15.6408 88.4384L22.3307 95.8332C22.9957 95.228 23.7205 94.6362 24.4919 94.0576C32.9441 87.7268 46.4369 83.8166 61.1667 83.8166C73.7418 83.8166 85.4525 86.6562 93.9578 91.5173C96.006 92.6877 97.8281 93.9579 99.4042 95.3078L105.881 87.7202C103.715 85.8882 101.381 84.263 98.9121 82.8657C88.8307 77.0935 75.411 73.8483 61.1667 73.8483C44.3954 73.8483 28.8144 78.357 18.5069 86.0776C17.5158 86.8201 16.5594 87.6078 15.6408 88.4384V88.4384ZM3.325 63.175V53.2H113.05V63.175H3.325Z" fill="white"/>
</svg>
