<svg width="76" height="76" viewBox="0 0 76 76" fill="none" xmlns="http://www.w3.org/2000/svg">
<path fill-rule="evenodd" clip-rule="evenodd" d="M9.29035e-07 6.27645C9.29035e-07 4.61184 0.661267 3.0154 1.83833 1.83834C3.01539 0.661275 4.61183 8.36739e-06 6.27645 8.36739e-06H68.8428C69.6678 -0.00133896 70.4849 0.160037 71.2473 0.474896C72.0098 0.789756 72.7027 1.25192 73.2864 1.83492C73.87 2.41792 74.3329 3.11031 74.6486 3.87245C74.9643 4.63459 75.1265 5.45152 75.1261 6.27645V68.8428C75.127 69.6679 74.9652 70.4851 74.65 71.2476C74.3347 72.0101 73.8723 72.703 73.289 73.2866C72.7057 73.8702 72.0131 74.333 71.2508 74.6487C70.4884 74.9643 69.6713 75.1266 68.8462 75.1261H6.27645C5.45192 75.1261 4.63548 74.9637 3.87376 74.648C3.11205 74.3324 2.41999 73.8698 1.83712 73.2866C1.25425 72.7034 0.792006 72.0111 0.476786 71.2492C0.161566 70.4873 -0.000447668 69.6708 9.29035e-07 68.8462V6.27645ZM29.7363 28.6435H39.909V33.7521C41.3774 30.8154 45.1337 28.1723 50.7784 28.1723C61.6 28.1723 64.1645 34.0219 64.1645 44.7547V64.6358H53.2132V47.1997C53.2132 41.0872 51.7448 37.6382 48.0158 37.6382C42.8424 37.6382 40.691 41.3569 40.691 47.1997V64.6358H29.7363V28.6435ZM10.9548 64.1679H21.9095V28.1723H10.9548V64.1645V64.1679ZM23.4769 16.4321C23.4976 17.3701 23.3307 18.3027 22.986 19.1753C22.6413 20.0479 22.1258 20.8428 21.4698 21.5135C20.8137 22.1842 20.0303 22.717 19.1655 23.0808C18.3008 23.4446 17.372 23.632 16.4338 23.632C15.4957 23.632 14.5669 23.4446 13.7021 23.0808C12.8374 22.717 12.0539 22.1842 11.3979 21.5135C10.7418 20.8428 10.2263 20.0479 9.88168 19.1753C9.53701 18.3027 9.37011 17.3701 9.39076 16.4321C9.4313 14.591 10.1911 12.839 11.5076 11.5513C12.824 10.2635 14.5923 9.54245 16.4338 9.54245C18.2754 9.54245 20.0437 10.2635 21.3601 11.5513C22.6765 12.839 23.4364 14.591 23.4769 16.4321Z" fill="white"/>
</svg>
